<?xml version="1.0" standalone="no"?><!DOCTYPE svg PUBLIC "-//W3C//DTD SVG 1.1//EN" "http://www.w3.org/Graphics/SVG/1.1/DTD/svg11.dtd"><svg t="1536910210564" class="icon" style="" viewBox="0 0 1244 1024" version="1.1" xmlns="http://www.w3.org/2000/svg" p-id="1372" xmlns:xlink="http://www.w3.org/1999/xlink" width="155.5" height="128"><defs><style type="text/css"></style></defs><path d="M365.714286 932.571429l219.428571-109.714286 0-179.419429-219.428571 93.696 0 195.437714zM329.142857 673.133714l230.838857-98.889143-230.838857-98.889143-230.838857 98.889143zM950.857143 932.571429l219.428571-109.714286 0-179.419429-219.428571 93.696 0 195.437714zM914.285714 673.133714l230.838857-98.889143-230.838857-98.889143-230.838857 98.889143zM658.285714 505.709714l219.428571-94.281143 0-151.990857-219.428571 93.696 0 152.576zM621.714286 289.133714l251.977143-108.032-251.977143-108.032-251.977143 108.032zM1243.428571 585.142857l0 237.714286q0 20.553143-10.825143 38.253714t-29.696 26.843429l-256 128q-14.262857 7.972571-32.548571 7.972571t-32.548571-7.972571l-256-128q-2.852571-1.170286-4.022857-2.267429-1.170286 1.170286-4.022857 2.267429l-256 128q-14.262857 7.972571-32.548571 7.972571t-32.548571-7.972571l-256-128q-18.870857-9.142857-29.696-26.843429t-10.825143-38.253714l0-237.714286q0-21.723429 12.288-40.009143t32.256-27.428571l248.027429-106.276571 0-228.571429q0-21.723429 12.288-40.009143t32.256-27.428571l256-109.714286q13.165714-5.705143 28.598857-5.705143t28.598857 5.705143l256 109.714286q19.968 9.142857 32.256 27.428571t12.288 40.009143l0 228.571429 248.027429 106.276571q20.553143 9.142857 32.548571 27.428571t11.995429 40.009143z" p-id="1373"></path></svg>